HIERARCHY
ROOT Hips
{
	OFFSET -3.958830 18.904000 13.208200
	CHANNELS 6 Xposition Yposition Zposition Zrotation Yrotation Xrotation 
	JOINT LHipJoint
	{
		OFFSET 0.000000 0.000000 0.000000
		CHANNELS 3 Zrotation Yrotation Xrotation
		JOINT LeftUpLeg
		{
			OFFSET 1.800000 -1.400000 0.085000
			CHANNELS 3 Zrotation Yrotation Xrotation
			JOINT LeftLeg
			{
				OFFSET 2.215000 -6.000000 0.000000
				CHANNELS 3 Zrotation Yrotation Xrotation
				JOINT LeftFoot
				{
					OFFSET 2.500000 -6.900000 0.000000
					CHANNELS 3 Zrotation Yrotation Xrotation
					JOINT LeftToeBase
					{
						OFFSET 0.200000 -0.500000 1.950000
						CHANNELS 3 Zrotation Yrotation Xrotation
						End Site
						{
							OFFSET 0.000000 0.000000 0.000000
						}
					}
				}
			}
		}
	}
	JOINT RHipJoint
	{
		OFFSET 0.000000 0.000000 0.000000
		CHANNELS 3 Zrotation Yrotation Xrotation
		JOINT RightUpLeg
		{
			OFFSET -1.800000 -1.400000 0.085000
			CHANNELS 3 Zrotation Yrotation Xrotation
			JOINT RightLeg
			{
				OFFSET -2.215000 -6.000000 0.000000
				CHANNELS 3 Zrotation Yrotation Xrotation
				JOINT RightFoot
				{
					OFFSET -2.500000 -6.900000 0.000000
					CHANNELS 3 Zrotation Yrotation Xrotation
					JOINT RightToeBase
					{
						OFFSET -0.200000 -0.500000 1.950000
						CHANNELS 3 Zrotation Yrotation Xrotation
						End Site
						{
							OFFSET 0.000000 0.000000 0.000000
						}
					}
				}
			}
		}
	}
	JOINT LowerBack
	{
		OFFSET 0.000000 0.000000 0.000000
		CHANNELS 3 Zrotation Yrotation Xrotation
		JOINT Spine
		{
			OFFSET -0.087000 1.940000 -0.288900
			CHANNELS 3 Zrotation Yrotation Xrotation
			JOINT Spine1
			{
				OFFSET 0.000000 1.950000 0.060000
				CHANNELS 3 Zrotation Yrotation Xrotation
				JOINT Neck
				{
					OFFSET 0.000000 0.000000 0.000000
					CHANNELS 3 Zrotation Yrotation Xrotation
					JOINT Neck1
					{
						OFFSET 0.000000 1.600000 0.340000
						CHANNELS 3 Zrotation Yrotation Xrotation
						JOINT Head
						{
							OFFSET 0.000000 1.667000 -0.240000
							CHANNELS 3 Zrotation Yrotation Xrotation
							End Site
							{
								OFFSET 0.000000 0.000000 0.000000
							}
						}
					}
				}
				JOINT LeftShoulder
				{
					OFFSET 0.000000 0.000000 0.000000
					CHANNELS 3 Zrotation Yrotation Xrotation
					JOINT LeftArm
					{
						OFFSET 2.700000 1.550000 -0.730000
						CHANNELS 3 Zrotation Yrotation Xrotation
						JOINT LeftForeArm
						{
							OFFSET 5.450000 0.000000 0.000000
							CHANNELS 3 Zrotation Yrotation Xrotation
							JOINT LeftHand
							{
								OFFSET 3.450000 0.000000 0.000000
								CHANNELS 3 Zrotation Yrotation Xrotation
								JOINT LeftHandIndex1
								{
									OFFSET 0.750000 0.000000 0.000000
									CHANNELS 3 Zrotation Yrotation Xrotation
									End Site
									{
										OFFSET 0.000000 0.000000 0.000000
									}
								}
							}
						}
					}
				}
				JOINT RightShoulder
				{
					OFFSET 0.000000 0.000000 0.000000
					CHANNELS 3 Zrotation Yrotation Xrotation
					JOINT RightArm
					{
						OFFSET -2.700000 1.550000 -0.730000
						CHANNELS 3 Zrotation Yrotation Xrotation
						JOINT RightForeArm
						{
							OFFSET -5.450000 0.000000 0.000000
							CHANNELS 3 Zrotation Yrotation Xrotation
							JOINT RightHand
							{
								OFFSET -3.450000 0.000000 0.000000
								CHANNELS 3 Zrotation Yrotation Xrotation
								JOINT RightHandIndex1
								{
									OFFSET -0.750000 0.000000 0.000000
									CHANNELS 3 Zrotation Yrotation Xrotation
									End Site
									{
										OFFSET 0.000000 0.000000 0.000000
									}
								}
							}
						}
					}
				}
			}
		}
	}
}
MOTION
Frames: 14
Frame Time: 0.016667
-0.214620 17.177560 -1.298010 -134.529858 -80.934558 109.491548 -14.923991 14.454212 3.353203 7.722764 0.459566 12.988573 -4.755808 7.467013 15.286172 -0.035215 6.277913 2.560644 0.153940 0.033540 -0.082450 18.354782 -10.983949 2.614183 8.144812 -2.414308 -9.568627 -14.319424 -5.495936 56.971592 -1.746944 -8.553536 1.681165 -0.048450 0.290180 0.277990 -2.979475 -6.136203 -7.215734 5.099920 -12.730677 41.795308 -9.727949 -11.989994 24.372758 4.402671 -7.315136 -18.993860 -24.491189 25.760651 29.577024 -21.861140 21.602220 -34.812750 -15.674556 -37.018044 9.876308 -13.210892 -23.007040 -15.179657 135.385734 -46.227307 -109.258442 -4.418912 1.466629 1.034990 -0.032060 0.358720 0.357030 7.866988 31.384941 17.088994 43.252827 -6.497041 -26.568521 170.817168 72.922549 144.411695 1.604991 -1.211486 -0.389520 0.467050 0.151530 -0.083530 
-0.197870 17.187250 -1.262890 -152.721894 -77.940198 127.710766 -14.894783 14.722758 3.374445 6.621131 0.635777 12.526615 -4.125675 7.387737 16.285168 -0.057513 6.240409 2.556377 0.206140 0.087250 -0.066940 18.396178 -10.676893 2.634307 8.230989 -1.966278 -9.762801 -13.769484 -5.758143 58.756891 -1.826341 -8.779444 1.595899 -0.016430 0.256100 0.258990 -2.933659 -5.734479 -7.270347 3.802872 -12.209303 42.482167 -9.336291 -11.685277 24.409783 3.898934 -7.650623 -19.797440 -25.499209 25.183800 29.325151 -18.196240 19.802140 -35.531460 -15.562058 -37.440769 10.662183 -14.237613 -22.764285 -15.698678 137.730757 -42.936350 -111.381062 -4.271985 1.727591 1.058650 -0.087700 0.365740 0.358170 8.913474 32.615602 17.673434 41.706618 -6.550004 -25.481906 174.804664 69.705209 146.691448 1.634494 -1.281403 -0.377880 0.467330 0.133030 -0.082440 
-0.178720 17.233720 -1.189130 -165.856816 -70.291460 140.443967 -15.175292 14.704131 3.308380 6.527057 0.794115 12.943711 -4.528432 7.598482 16.373787 -0.074241 6.326776 2.516775 0.184800 0.047430 -0.085750 18.168110 -10.344922 2.790181 9.440704 -0.468882 -9.505171 -13.379058 -5.832830 62.315691 -1.970928 -9.252764 1.429521 -0.028310 0.235830 0.198310 -3.718712 -4.353643 -7.468189 5.609269 -12.263625 43.804667 -10.525968 -11.018475 24.766390 3.662752 -7.881344 -21.572694 -26.929637 23.663619 31.455730 -12.333550 16.438430 -35.879950 -17.258902 -40.838696 11.993728 -14.593214 -21.056586 -17.958955 140.608570 -39.277822 -113.500801 -4.189393 1.885155 1.104270 -0.165970 0.338070 0.299520 11.332601 36.596848 19.610100 38.281232 -7.208017 -24.597105 -177.402045 64.603617 152.858903 1.658218 -1.302891 -0.402090 0.508890 0.189020 -0.102220 
-0.185480 17.244700 -1.090970 -168.547055 -60.208411 144.591732 -15.365515 14.259290 2.860532 7.831880 0.403669 10.862666 -4.724267 7.779025 18.126127 -0.394896 6.467251 2.418712 0.190890 -0.087830 -0.005260 18.103355 -10.125713 3.096423 12.037135 2.203896 -11.002462 -12.479092 -6.612002 68.699496 -2.193171 -10.189496 1.078436 -0.009020 0.223600 0.158140 -4.719888 -2.803674 -7.703784 11.361701 -13.457510 41.493277 -14.021607 -10.061481 26.631935 3.905878 -8.160582 -22.270041 -27.536040 20.926942 33.571172 -5.728000 11.783000 -36.326010 -16.771380 -43.085419 13.001948 -16.887581 -22.841344 -18.954446 140.579241 -38.108425 -113.483253 -4.190271 1.791046 1.248010 -0.218670 0.247320 0.175890 10.669766 38.991092 20.489549 35.757911 -4.553971 -22.517148 -167.071826 58.129803 166.169920 1.584750 -1.327551 -0.528710 0.562590 0.319310 -0.243780 
-0.212600 17.253520 -0.987730 -169.140058 -50.934536 147.270208 -15.296156 13.821537 2.535900 9.375648 0.052173 8.845573 -5.750285 8.109891 19.179943 -0.600238 6.591015 2.331966 0.189910 -0.121730 0.001310 18.254644 -10.111804 3.243959 12.637286 3.761651 -12.274259 -8.889422 -9.741745 72.099727 -2.339852 -10.835232 0.856192 0.034250 0.250340 0.157840 -5.194189 -1.971247 -7.851987 15.167447 -13.921773 38.254101 -16.682559 -8.965444 29.858054 4.213219 -7.570052 -22.628573 -25.391330 17.938250 35.394740 -1.773060 8.858140 -37.548700 -15.500980 -45.758344 13.882366 -18.566498 -24.973948 -21.085875 140.688960 -37.589521 -113.806615 -4.289365 1.612522 1.313700 -0.213220 0.215740 0.126590 8.896284 41.031650 21.205235 36.876934 -1.770343 -21.518173 -162.450577 52.871444 171.707728 1.560099 -1.259514 -0.597350 0.625090 0.405410 -0.297570 
-0.264540 17.252200 -0.909680 -170.012068 -40.983643 150.269484 -15.107503 13.478807 2.317857 9.878507 0.146143 7.960285 -5.243146 7.774893 18.530030 -0.699358 6.351954 2.394829 0.260600 -0.011200 0.008390 18.491033 -10.184545 3.360071 12.263858 5.044784 -14.649753 -7.847838 -12.090710 78.423009 -2.630813 -11.882527 0.577048 0.113050 0.255420 0.138790 -5.435511 -1.538682 -7.922310 17.451714 -14.006926 34.852481 -17.918005 -8.211435 32.295278 4.054834 -7.161201 -23.750751 -25.060456 16.283438 38.250231 3.745000 6.475140 -37.652630 -14.611253 -47.950882 15.308263 -20.700966 -26.094587 -24.279004 140.528407 -37.898083 -114.015398 -4.349582 1.417979 1.329060 -0.233090 0.240910 0.148630 8.428751 43.247403 22.220737 37.414201 0.181025 -19.981058 -163.773472 49.179868 166.938375 1.602207 -1.192867 -0.590660 0.682840 0.383990 -0.280200 
-0.335300 17.216910 -0.861950 -170.355906 -31.600822 152.617891 -14.907940 13.209532 2.165060 10.079986 0.385043 7.846861 -3.709023 7.046494 16.630741 -0.828046 6.106119 2.505949 0.158860 -0.170560 -0.074940 18.711394 -10.275608 3.516278 11.416779 6.149254 -17.518487 -8.546108 -14.765406 87.920142 -2.978179 -13.391252 0.206803 0.047930 0.349740 0.149010 -5.569153 -1.198609 -7.943719 19.782731 -14.707791 32.089089 -19.748510 -8.053122 32.092671 4.911593 -6.939366 -24.549879 -24.795476 14.469590 41.166763 6.473140 4.310270 -35.949410 -16.468393 -47.634495 16.503071 -23.362585 -27.559875 -23.098312 141.796634 -36.005311 -117.120768 -4.294166 1.510922 1.377740 -0.199440 0.188690 0.128990 8.534510 44.213088 22.851325 39.191511 1.372243 -17.805160 -170.539070 47.252269 152.414441 1.680094 -1.046885 -0.660760 0.727330 0.484580 -0.291900 
-0.386930 17.195480 -0.814900 -170.081186 -22.070011 154.067167 -14.768486 13.077421 2.034407 11.489771 0.445434 7.468860 -3.323541 7.073170 16.973027 -0.774188 6.062947 2.534320 0.125640 -0.207690 -0.099180 18.842398 -10.218861 3.840490 11.028383 8.039319 -19.699927 -10.230304 -16.936112 98.187461 -3.358859 -14.779188 -0.091144 -0.009210 0.339310 0.164010 -5.480264 -1.127906 -8.018035 21.384976 -15.060810 31.892508 -20.560570 -7.913245 30.192392 5.786062 -6.647028 -24.388796 -23.980896 12.238168 44.140903 6.672590 2.516570 -36.613250 -18.277184 -45.983119 16.781659 -25.022082 -29.728618 -17.948476 144.165253 -36.974416 -125.303818 -4.124323 1.726626 1.378440 -0.213470 0.208030 0.133080 8.342554 44.011511 22.334649 37.309357 2.721783 -16.207447 -174.768138 46.449618 144.331505 1.745310 -1.019419 -0.631720 0.698710 0.475970 -0.272780 
-0.418810 17.197480 -0.777420 -170.479940 -12.680896 155.696755 -14.510751 13.129206 2.255321 12.026598 -0.625091 6.621227 -3.998903 7.196879 19.154597 -0.702888 6.034052 2.491895 0.169610 -0.173380 -0.008380 18.936774 -11.284581 3.362139 12.718029 1.884990 -23.078553 -23.433516 -6.287687 100.981429 -3.431770 -14.615172 -0.064500 -0.071500 0.189790 0.215880 -5.672932 -0.208240 -7.869828 21.463581 -13.920442 31.063580 -19.645804 -5.514815 30.064093 5.164571 -4.187131 -25.429858 -18.456591 9.377037 52.737086 8.628960 2.397070 -41.720400 -20.855152 -46.063504 16.995676 -25.177193 -31.305921 -12.498500 146.208158 -44.347647 -139.568745 -3.824789 2.113456 1.462160 -0.317680 0.337720 0.106920 11.626147 43.969972 23.431128 36.696451 2.191750 -15.626248 -168.737547 44.358289 158.238004 1.839198 -0.997140 -0.544950 0.588940 0.408140 -0.297000 
-0.447200 17.208910 -0.747990 -170.437789 -5.218305 155.677544 -14.601145 13.303924 2.167923 13.430052 0.025793 6.144102 -4.605115 8.260294 21.978713 -0.595100 6.437305 2.347430 0.162520 -0.179060 0.006700 18.841633 -10.574856 3.929088 8.118644 7.542388 -20.735310 -13.614930 -16.263691 104.377335 -3.591132 -15.181140 -0.167871 -0.097430 0.155620 0.196550 -5.201254 -1.164049 -8.162163 20.500765 -12.650349 33.682482 -18.471561 -5.216611 29.734081 4.938223 -2.252336 -25.492825 -15.093490 5.473406 56.907195 12.067310 -0.419270 -44.617560 -22.789956 -48.511129 18.547036 -23.676724 -31.786552 -11.724152 143.300682 -52.475162 -143.107611 -3.846782 2.022661 1.504760 -0.360980 0.376610 0.099850 13.489743 45.130025 23.575284 37.374810 1.410002 -18.422803 -162.036618 42.496688 171.918160 1.860177 -0.954368 -0.541690 0.601570 0.383240 -0.301280 
-0.488830 17.217640 -0.720190 -169.740639 1.042201 156.163385 -14.579276 13.507588 2.237061 14.517485 -0.187882 5.553447 -4.092678 8.124419 22.470927 -0.572378 6.334946 2.365482 0.330180 0.075510 0.073430 18.792569 -10.810615 3.732721 6.543282 5.863567 -21.033127 -18.296776 -13.206556 108.448575 -3.714734 -15.308500 -0.171888 0.024200 0.097800 0.205760 -5.048015 -1.317530 -8.044636 20.241910 -12.557524 32.695630 -17.912764 -5.387053 32.025350 5.237531 -0.576822 -25.057696 -11.374585 1.965640 58.069703 13.601700 -2.268480 -46.550580 -21.852174 -49.938135 19.377670 -23.399306 -32.255377 -12.375157 138.101013 -56.017179 -141.373670 -3.826081 1.896606 1.480210 -0.390830 0.467590 0.183920 11.936457 45.345864 23.100137 41.735267 2.733544 -20.120944 -158.137151 42.054694 178.460352 1.901148 -0.948824 -0.457150 0.610790 0.250060 -0.249230 
-0.531190 17.194570 -0.711670 -168.486316 7.320491 157.477869 -14.591623 13.765939 2.306096 15.915894 -0.541597 4.873421 -3.687362 8.057428 22.854415 -0.503730 6.285398 2.366737 0.474800 0.281670 0.093070 18.731236 -10.908088 3.505694 5.434713 4.347537 -22.249867 -22.082326 -9.479485 109.266435 -3.733266 -15.318935 -0.162126 0.124880 0.075610 0.205510 -4.867054 -1.767599 -7.885486 20.182407 -13.506637 31.171556 -17.060676 -6.959524 33.151975 5.669331 -1.045875 -24.656624 -12.445693 1.477412 56.560624 15.252650 -4.136610 -44.082570 -21.300341 -49.116591 20.141465 -25.235668 -33.012524 -13.666845 135.238269 -55.933172 -136.556578 -3.960338 1.634375 1.387250 -0.397910 0.485470 0.281960 10.729562 44.842613 22.298497 42.026726 3.793253 -19.890027 -158.262523 43.240996 177.223094 1.888299 -1.112069 -0.366150 0.568200 0.123570 -0.172730 
-0.559180 17.173900 -0.690620 -167.999915 13.685314 158.541802 -14.609706 13.986771 2.407778 16.670774 -0.699819 4.692307 -3.681468 8.233801 23.438523 -0.362673 6.306400 2.385167 0.451990 0.313080 0.045270 18.658125 -11.034378 3.320470 3.762332 3.340211 -23.370953 -24.563735 -6.039022 108.054032 -3.674756 -15.225944 -0.099767 0.113390 0.078810 0.149850 -4.666476 -2.094230 -7.831589 19.576117 -14.107419 31.901240 -15.873458 -7.940720 32.038102 5.650510 -1.414398 -24.529863 -13.430173 -0.169658 56.517173 16.305300 -6.662240 -42.763780 -21.627822 -47.914804 20.499331 -28.185015 -34.550871 -13.411506 136.413975 -55.441003 -135.752639 -3.960315 1.589537 1.288780 -0.396110 0.466030 0.314880 11.004022 44.510515 22.119621 43.199557 3.990385 -19.515177 -158.256321 42.631969 178.241335 1.977797 -1.133012 -0.328220 0.557530 0.062270 -0.108210 
-0.559410 17.145900 -0.656710 -167.510327 21.038139 159.983453 -14.690808 14.135098 2.509284 18.004173 -0.883243 3.945937 -4.626231 8.920898 24.765586 -0.305712 6.599361 2.271602 0.411430 0.286420 0.013860 18.542535 -10.932116 3.318201 2.056115 3.619171 -24.985552 -24.794317 -5.173024 107.354106 -3.615773 -15.204775 -0.091051 0.105510 0.091700 0.121110 -4.322303 -2.536964 -7.961577 18.041893 -13.037344 33.176443 -13.842522 -7.318161 30.812700 5.387433 -0.328385 -24.005724 -11.057466 -3.145709 56.618898 17.028990 -8.573720 -41.878720 -21.517846 -46.898669 20.444487 -30.153259 -38.467507 -9.884820 133.899094 -58.538918 -135.688100 -3.921952 1.626752 1.248220 -0.373260 0.432030 0.301930 11.212198 43.458824 21.334628 43.037552 3.984058 -20.133791 -155.747161 42.781310 -175.129237 1.959072 -1.133291 -0.338890 0.557540 0.070830 -0.103400 
